<svg width="64" height="64" xmlns="http://www.w3.org/2000/svg">
 <metadata>image/svg+xml</metadata>
 <g>
  <title>Layer 1</title>
 <path fill="#000" d="m35.64,1.5153c2.6038,0.71457,4.4066,1.7639,6.3651,3.7065,1.9585,1.9313,3.2382,4.343,3.8391,7.1784,0.27814,1.3174,0.27814,4.0526,0,5.3587-0.92357,4.343-3.6612,7.9377-7.4778,9.8244-1.6692,0.82619-3.9393,1.4513-5.2523,1.4513h-0.37793l0.03329,0.79276,0.03357,0.7815,0.57866,0.20091c1.1016,0.36844,1.9028,1.1164,2.3925,2.2106,0.23362,0.51347,0.30046,1.4291,0.178,2.6348-0.03329,0.26803,0.04455,0.3574,0.54531,0.64765l0.56749,0.33493,0.62323-0.82619c2.0363-2.7128,4.9075-4.5549,8.3569-5.3252,1.4244-0.32367,3.9614-0.35727,5.3749-0.07822,5.0408,1.0161,9.0693,4.5103,10.638,9.2327,0.61203,1.831,0.76776,2.9809,0.70102,5.0797-0.04455,1.4402-0.11128,1.9985-0.34505,2.9026-0.15572,0.61406-0.28928,1.1388-0.27817,1.1722,0.01116,0.12285,0.57865-1.5518,0.8235-2.456,1.5691-5.8165,0.37835-12.158-3.2272-17.092-1.7025-2.3443-4.4623-4.6778-6.9772-5.917l-0.74557-0.3683,0.06687-1.1835c0.124-2.201-0.277-4.858-1.1-7.247-2.326-6.7543-8.124-11.778-15.2-13.129-1.202-0.2345-1.247-0.201-0.134,0.1116z"/>
 <path fill="#000" d="M28.186,1.4261c-0.846,0.1451-2.816,0.7703-3.951,1.2504-5.975,2.5453-10.426,7.9715-11.728,14.302-0.334,1.574-0.49,3.472-0.412,4.8l0.06677,1.1835-0.74554,0.3684c-4.4623,2.177-8.2347,6.587-9.8592,11.51-1.0794,3.26-1.302,6.967-0.63428,10.271,0.22248,1.083,0.97918,3.64,1.0571,3.55,0.0112-0.011-0.1001-0.513-0.2447-1.094-0.3784-1.44-0.4785-4.142-0.2115-5.694,1.0127-5.816,5.3858-10.304,11.184-11.465,1.3242-0.26789,3.9614-0.25684,5.2412,0.01125,1.8138,0.39077,3.6055,1.1388,5.1633,2.1657,0.99037,0.65869,2.5706,2.1658,3.3608,3.2153l0.62324,0.83728,0.56747-0.33494c0.50077-0.29031,0.57866-0.37962,0.54532-0.6476-0.12238-1.1944-0.05561-2.1212,0.16691-2.6235,0.50075-1.0941,1.2797-1.8197,2.4035-2.2106l0.5786-0.20081,0.03357-0.79266,0.03339-0.79272h-0.37832c-1.2241,0-3.5164-0.614-5.0299-1.3397-5.0522-2.4448-8.2901-7.9153-7.912-13.374,0.25602-3.6285,1.569-6.5646,4.0616-9.0765,1.7693-1.7751,3.6831-2.9472,5.9089-3.6058,0.84577-0.24568,0.89024-0.34619,0.1113-0.21218z"/>
 <path d="m29.699,16.598c-3.0045,0.40186-6.4207,1.8867-8.6686,3.7511l-0.32268,0.25681,0.41171,0.72567c0.46739,0.83732,1.4244,2.1213,1.9808,2.657l0.37839,0.36852,0.43399-0.35727c1.135-0.90429,2.8376-1.8197,4.2508-2.2662,4.1507-1.3174,8.4348-0.51355,12.118,2.2662l0.4562,0.34602,0.71225-0.78149c0.63428-0.71442,1.9808-2.6904,1.9808-2.9138,0-0.0558-0.26722-0.29036-0.57873-0.53584-3.8168-2.8804-8.5573-4.1531-13.153-3.5166z"/>
 <path d="m14.542,31.592c-0.20026,0.08928-0.25589,0.25676-0.35608,1.2281-0.47855,4.1976,0.66771,8.5069,3.2159,12.102,1.7805,2.5232,3.9951,4.3876,6.8659,5.7944,1.0906,0.53582,1.402,0.64749,1.5246,0.53582,0.25584-0.21206,1.3576-2.5453,1.6023-3.3828l0.21135-0.75912-1.0237-0.48006c-0.55637-0.25686-1.3241-0.66983-1.6803-0.90435-3.0045-1.909-5.1745-5.0798-5.909-8.6073-0.20025-0.96016-0.26695-3.0923-0.12236-4.3095l0.07784-0.7368-1.0126-0.24559c-1.113-0.258-3.027-0.392-3.394-0.235z"/>
 <path d="m47.603,31.559c-0.17797,0.02232-0.80123,0.15627-1.3687,0.27921l-1.035,0.23438,0.08909,0.68089c0.13351,1.0607,0.10005,3.2823-0.06687,4.1531-0.51182,2.6346-1.8026,5.0796-3.6832,6.9774-1.1017,1.0941-2.1254,1.831-3.6387,2.5791l-1.3577,0.66989,0.17806,0.58034c0.34498,1.1724,1.124,2.8804,1.5579,3.4163l0.2226,0.26795,1.3799-0.68104c2.215-1.081,3.795-2.242,5.353-3.928,3.472-3.762,5.23-8.775,4.762-13.62-0.066-0.77-0.178-1.44-0.233-1.507-0.112-0.112-1.569-0.179-2.159-0.101z"/>
 <path fill="#000" d="m28.464,37.364c-0.24487,0.15624-0.51191,0.31257-0.58974,0.36836-0.12245,0.06696-0.10012,0.18984,0.12234,0.63642,0.85688,1.708,1.3577,4.2423,1.2576,6.4079-0.2894,6.6205-4.7738,11.879-11.306,13.252-1.4243,0.30142-3.928,0.26802-5.4528-0.06687-2.7374-0.60295-4.8517-1.7416-7.0662-3.8071l-0.77895-0.72558,0.57864,0.681c2.9266,3.4384,6.9217,5.8388,11.217,6.7429,4.3064,0.89313,8.702,0.35738,12.686-1.5518,0.7344-0.34617,1.7025-0.88192,2.1477-1.1722l0.81227-0.53584,0.75682,0.50234c0.86801,0.58045,2.1143,1.2281,3.3494,1.7305,4.9186,2.0429,10.761,1.909,15.735-0.36847,2.5704-1.1722,5.0742-3.0924,7.0105-5.3587,0.54515-0.64751,0.53411-0.63628-0.41181,0.2456-2.0254,1.9091-4.3178,3.1036-7.0329,3.6731-1.3687,0.29024-4.0616,0.29024-5.397,0-2.8043-0.60287-5.1634-1.8867-7.1218-3.8516-2.0141-2.0319-3.2606-4.3764-3.8614-7.2678-0.27819-1.3285-0.26702-3.9408,0.01125-5.3028,0.22266-1.0718,0.73445-2.6236,1.0905-3.3269,0.24485-0.49129,0.24485-0.49129-0.63436-0.96011l-0.48962-0.25679-0.57858,0.51359c-1.3688,1.2392-3.5054,1.2392-4.874,0-0.30044-0.26801-0.58975-0.49129-0.63426-0.48-0.05561,0-0.3004,0.13384-0.54525,0.27902z"/>
 </g>
</svg>
