<?xml version="1.0" encoding="UTF-8" standalone="no"?>
<!-- Generator: Adobe Illustrator 16.0.4, SVG Export Plug-In . SVG Version: 6.00 Build 0)  -->

<svg
   xmlns:dc="http://purl.org/dc/elements/1.1/"
   xmlns:cc="http://creativecommons.org/ns#"
   xmlns:rdf="http://www.w3.org/1999/02/22-rdf-syntax-ns#"
   xmlns:svg="http://www.w3.org/2000/svg"
   xmlns="http://www.w3.org/2000/svg"
   xmlns:sodipodi="http://sodipodi.sourceforge.net/DTD/sodipodi-0.dtd"
   xmlns:inkscape="http://www.inkscape.org/namespaces/inkscape"
   version="1.1"
   id="Capa_1"
   x="0px"
   y="0px"
   width="18.177263"
   height="19.212669"
   viewBox="0 0 18.177262 19.21267"
   xml:space="preserve"
   inkscape:version="0.48.4 r9939"
   sodipodi:docname="icon-delete.svg"><metadata
   id="metadata43"><rdf:RDF><cc:Work
       rdf:about=""><dc:format>image/svg+xml</dc:format><dc:type
         rdf:resource="http://purl.org/dc/dcmitype/StillImage" /></cc:Work></rdf:RDF></metadata><defs
   id="defs41" /><sodipodi:namedview
   pagecolor="#ffffff"
   bordercolor="#666666"
   borderopacity="1"
   objecttolerance="10"
   gridtolerance="10"
   guidetolerance="10"
   inkscape:pageopacity="0"
   inkscape:pageshadow="2"
   inkscape:window-width="880"
   inkscape:window-height="771"
   id="namedview39"
   showgrid="false"
   inkscape:zoom="10.670042"
   inkscape:cx="11.478499"
   inkscape:cy="11.058985"
   inkscape:window-x="288"
   inkscape:window-y="79"
   inkscape:window-maximized="0"
   inkscape:current-layer="g3"
   fit-margin-top="0"
   fit-margin-left="0"
   fit-margin-right="0"
   fit-margin-bottom="0" />
<g
   id="g3"
   transform="translate(-6.0750233e-7,-2.9053305)">
	<polygon
   style="fill:#1a1a1a;fill-rule:evenodd"
   points="1.778,20.504 1.778,6.208 6.927,6.208 6.927,1.578 15.17,1.578 15.17,9.561 16.947,9.561 16.947,0 5.019,0 0,4.488 0,22.082 9.1,22.082 9.1,20.504 "
   id="polygon5"
   transform="matrix(0.79179608,0,0,0.86864407,0,2.9053305)" />
	<polygon
   style="fill:#231f20;fill-rule:evenodd"
   points="20.212,9.066 22.957,11.811 19.178,15.59 22.957,19.374 20.212,22.118 16.433,18.339 12.649,22.118 9.905,19.374 13.685,15.59 9.905,11.811 12.649,9.066 16.433,12.846 "
   id="polygon7"
   transform="matrix(0.79179608,0,0,0.86864407,0,2.9053305)" />
<path
   style="fill:#d40000;stroke:none"
   d="M 8.9177974,20.864118 7.8807242,19.724211 9.3823703,18.07535 10.884017,16.426489 9.3997201,14.798134 7.9154233,13.169778 8.9740561,12.010472 10.03269,10.851164 l 1.482656,1.628083 1.482657,1.628083 1.505821,-1.648563 1.505821,-1.648563 1.049637,1.165226 1.049638,1.165227 -1.46022,1.603445 c -0.803122,0.881895 -1.460221,1.63941 -1.460221,1.683366 0,0.04395 0.659289,0.803874 1.465086,1.688708 l 1.465086,1.608788 -1.056761,1.159323 -1.056758,1.159324 -1.466461,-1.60728 c -0.806553,-0.884004 -1.499869,-1.60728 -1.540702,-1.60728 -0.04083,0 -0.72477,0.71437 -1.519859,1.587488 -0.79509,0.873119 -1.463082,1.587488 -1.4844288,1.587488 -0.021347,0 -0.5054937,-0.51296 -1.0758838,-1.139909 l 0,0 z"
   id="path3020"
   inkscape:connector-curvature="0" /><path
   style="fill:#1a1a1a;stroke:none"
   d="m 0.05017062,14.451703 0,-7.6337334 1.96992688,-1.9318966 1.9699271,-1.9318967 4.7087382,0 4.7087392,0 0,4.1111856 0,4.1111861 -0.667866,0 -0.667867,0 0,-3.4599092 0,-3.4599087 -3.3022291,0 -3.3022293,0 0,1.9945356 0,1.9945356 -2.0407034,0 -2.0407034,0 0,6.2685407 0,6.26854 2.8940885,0 2.8940885,0 0,0.651277 0,0.651277 -3.5619551,0 -3.56195508,0 0,-7.633733 z"
   id="path3022"
   inkscape:connector-curvature="0" /><path
   style="fill:#1a1a1a;stroke:none"
   d="m 0.05017062,14.449724 0,-7.6357129 1.96882878,-1.9299175 1.9688288,-1.9299173 4.7098372,0 4.7098366,0 0,4.1111856 0,4.1111861 -0.667866,0 -0.667867,0 0,-3.4599092 0,-3.4599087 -3.3022291,0 -3.3022293,0 0,1.9945356 0,1.9945356 -2.0407034,0 -2.0407034,0 0,6.2685407 0,6.26854 2.8940885,0 2.8940885,0 0,0.651277 0,0.651277 -3.5619551,0 -3.56195508,0 0,-7.635712 z"
   id="path3024"
   inkscape:connector-curvature="0" /></g>
<g
   id="g9"
   transform="translate(-6.0750233e-7,-2.9053305)">
</g>
<g
   id="g11"
   transform="translate(-6.0750233e-7,-2.9053305)">
</g>
<g
   id="g13"
   transform="translate(-6.0750233e-7,-2.9053305)">
</g>
<g
   id="g15"
   transform="translate(-6.0750233e-7,-2.9053305)">
</g>
<g
   id="g17"
   transform="translate(-6.0750233e-7,-2.9053305)">
</g>
<g
   id="g19"
   transform="translate(-6.0750233e-7,-2.9053305)">
</g>
<g
   id="g21"
   transform="translate(-6.0750233e-7,-2.9053305)">
</g>
<g
   id="g23"
   transform="translate(-6.0750233e-7,-2.9053305)">
</g>
<g
   id="g25"
   transform="translate(-6.0750233e-7,-2.9053305)">
</g>
<g
   id="g27"
   transform="translate(-6.0750233e-7,-2.9053305)">
</g>
<g
   id="g29"
   transform="translate(-6.0750233e-7,-2.9053305)">
</g>
<g
   id="g31"
   transform="translate(-6.0750233e-7,-2.9053305)">
</g>
<g
   id="g33"
   transform="translate(-6.0750233e-7,-2.9053305)">
</g>
<g
   id="g35"
   transform="translate(-6.0750233e-7,-2.9053305)">
</g>
<g
   id="g37"
   transform="translate(-6.0750233e-7,-2.9053305)">
</g>
</svg>