<?xml version="1.0" encoding="UTF-8" standalone="no"?>
<!-- Generator: Adobe Illustrator 16.0.0, SVG Export Plug-In . SVG Version: 6.00 Build 0)  -->

<svg
   xmlns:dc="http://purl.org/dc/elements/1.1/"
   xmlns:cc="http://creativecommons.org/ns#"
   xmlns:rdf="http://www.w3.org/1999/02/22-rdf-syntax-ns#"
   xmlns="http://www.w3.org/2000/svg"
   xmlns:sodipodi="http://sodipodi.sourceforge.net/DTD/sodipodi-0.dtd"
   xmlns:inkscape="http://www.inkscape.org/namespaces/inkscape"
   version="1.1"
   x="0px"
   y="0px"
   width="32.023853"
   height="41.939781"
   viewBox="0 0 32.023853 41.939781"
   enable-background="new 0 0 50 50"
   xml:space="preserve"
   id="svg2"
   inkscape:version="0.48.4 r9939"
   sodipodi:docname="Flaticon_36094.svg"><metadata
   id="metadata245"><rdf:RDF><cc:Work
       rdf:about=""><dc:format>image/svg+xml</dc:format><dc:type
         rdf:resource="http://purl.org/dc/dcmitype/StillImage" /><dc:title></dc:title></cc:Work></rdf:RDF></metadata><defs
   id="defs243" /><sodipodi:namedview
   pagecolor="#ffffff"
   bordercolor="#666666"
   borderopacity="1"
   objecttolerance="10"
   gridtolerance="10"
   guidetolerance="10"
   inkscape:pageopacity="0"
   inkscape:pageshadow="2"
   inkscape:window-width="1038"
   inkscape:window-height="819"
   id="namedview241"
   showgrid="false"
   fit-margin-top="0"
   fit-margin-left="0"
   fit-margin-right="0"
   fit-margin-bottom="0"
   inkscape:zoom="4.72"
   inkscape:cx="-7.8389822"
   inkscape:cy="20.435542"
   inkscape:window-x="0"
   inkscape:window-y="0"
   inkscape:window-maximized="0"
   inkscape:current-layer="g191" />
<g
   id="text"
   transform="translate(-4.9788127,-3.495762)">
</g>
<g
   id="_x31_"
   transform="translate(-4.9788127,-3.495762)">
</g>
<g
   id="_x32_"
   transform="translate(-4.9788127,-3.495762)">
</g>
<g
   id="_x33__1_"
   transform="translate(-4.9788127,-3.495762)">
</g>
<g
   id="_x34_"
   transform="translate(-4.9788127,-3.495762)">
</g>
<g
   id="_x35_"
   transform="translate(-4.9788127,-3.495762)">
</g>
<g
   id="_x36_"
   transform="translate(-4.9788127,-3.495762)">
</g>
<g
   id="_x37_"
   transform="translate(-4.9788127,-3.495762)">
</g>
<g
   id="_x38_"
   transform="translate(-4.9788127,-3.495762)">
</g>
<g
   id="_x39_"
   transform="translate(-4.9788127,-3.495762)">
</g>
<g
   id="_x31_0"
   transform="translate(-4.9788127,-3.495762)">
</g>
<g
   id="_x31_1"
   transform="translate(-4.9788127,-3.495762)">
</g>
<g
   id="_x31_2"
   transform="translate(-4.9788127,-3.495762)">
</g>
<g
   id="_x31_3"
   transform="translate(-4.9788127,-3.495762)">
</g>
<g
   id="_x31_4"
   transform="translate(-4.9788127,-3.495762)">
</g>
<g
   id="_x31_5"
   transform="translate(-4.9788127,-3.495762)">
</g>
<g
   id="_x31_6"
   transform="translate(-4.9788127,-3.495762)">
</g>
<g
   id="_x31_7"
   transform="translate(-4.9788127,-3.495762)">
</g>
<g
   id="_x31_8"
   transform="translate(-4.9788127,-3.495762)">
</g>
<g
   id="_x31_9"
   transform="translate(-4.9788127,-3.495762)">
</g>
<g
   id="_x32_0"
   transform="translate(-4.9788127,-3.495762)">
</g>
<g
   id="_x32_1"
   transform="translate(-4.9788127,-3.495762)">
</g>
<g
   id="_x32_2"
   transform="translate(-4.9788127,-3.495762)">
</g>
<g
   id="_x32_3"
   transform="translate(-4.9788127,-3.495762)">
</g>
<g
   id="_x32_4"
   transform="translate(-4.9788127,-3.495762)">
</g>
<g
   id="_x32_5"
   transform="translate(-4.9788127,-3.495762)">
</g>
<g
   id="_x32_6"
   transform="translate(-4.9788127,-3.495762)">
</g>
<g
   id="_x32_7"
   transform="translate(-4.9788127,-3.495762)">
</g>
<g
   id="_x32_8"
   transform="translate(-4.9788127,-3.495762)">
</g>
<g
   id="_x32_9"
   transform="translate(-4.9788127,-3.495762)">
</g>
<g
   id="_x33_0"
   transform="translate(-4.9788127,-3.495762)">
</g>
<g
   id="_x33_1"
   transform="translate(-4.9788127,-3.495762)">
</g>
<g
   id="_x33_2"
   transform="translate(-4.9788127,-3.495762)">
</g>
<g
   id="_x33_3"
   transform="translate(-4.9788127,-3.495762)">
</g>
<g
   id="_x33_4"
   transform="translate(-4.9788127,-3.495762)">
</g>
<g
   id="_x33_5"
   transform="translate(-4.9788127,-3.495762)">
</g>
<g
   id="_x33_6"
   transform="translate(-4.9788127,-3.495762)">
</g>
<g
   id="_x33_7"
   transform="translate(-4.9788127,-3.495762)">
</g>
<g
   id="_x33_8"
   transform="translate(-4.9788127,-3.495762)">
</g>
<g
   id="_x33_9"
   transform="translate(-4.9788127,-3.495762)">
</g>
<g
   id="_x34_0"
   transform="translate(-4.9788127,-3.495762)">
</g>
<g
   id="_x34_1"
   transform="translate(-4.9788127,-3.495762)">
</g>
<g
   id="_x34_2"
   transform="translate(-4.9788127,-3.495762)">
</g>
<g
   id="_x34_3"
   transform="translate(-4.9788127,-3.495762)">
</g>
<g
   id="_x34_4"
   transform="translate(-4.9788127,-3.495762)">
</g>
<g
   id="_x34_5"
   transform="translate(-4.9788127,-3.495762)">
</g>
<g
   id="_x34_6"
   transform="translate(-4.9788127,-3.495762)">
</g>
<g
   id="_x34_7"
   transform="translate(-4.9788127,-3.495762)">
</g>
<g
   id="_x34_8"
   transform="translate(-4.9788127,-3.495762)">
</g>
<g
   id="_x34_9"
   transform="translate(-4.9788127,-3.495762)">
</g>
<g
   id="_x35_0"
   transform="translate(-4.9788127,-3.495762)">
</g>
<g
   id="_x35_1"
   transform="translate(-4.9788127,-3.495762)">
</g>
<g
   id="_x35_2"
   transform="translate(-4.9788127,-3.495762)">
</g>
<g
   id="_x35_3"
   transform="translate(-4.9788127,-3.495762)">
</g>
<g
   id="_x35_4"
   transform="translate(-4.9788127,-3.495762)">
</g>
<g
   id="_x35_5"
   transform="translate(-4.9788127,-3.495762)">
</g>
<g
   id="_x35_6"
   transform="translate(-4.9788127,-3.495762)">
</g>
<g
   id="_x35_7"
   transform="translate(-4.9788127,-3.495762)">
</g>
<g
   id="_x35_8"
   transform="translate(-4.9788127,-3.495762)">
</g>
<g
   id="_x35_9"
   transform="translate(-4.9788127,-3.495762)">
</g>
<g
   id="_x36_0"
   transform="translate(-4.9788127,-3.495762)">
</g>
<g
   id="_x36_1"
   transform="translate(-4.9788127,-3.495762)">
</g>
<g
   id="_x36_2"
   transform="translate(-4.9788127,-3.495762)">
</g>
<g
   id="_x36_3"
   transform="translate(-4.9788127,-3.495762)">
</g>
<g
   id="_x36_4"
   transform="translate(-4.9788127,-3.495762)">
</g>
<g
   id="_x36_5"
   transform="translate(-4.9788127,-3.495762)">
</g>
<g
   id="_x36_6"
   transform="translate(-4.9788127,-3.495762)">
</g>
<g
   id="_x36_7"
   transform="translate(-4.9788127,-3.495762)">
</g>
<g
   id="_x36_8"
   transform="translate(-4.9788127,-3.495762)">
</g>
<g
   id="_x36_9"
   transform="translate(-4.9788127,-3.495762)">
</g>
<g
   id="_x37_0"
   transform="translate(-4.9788127,-3.495762)">
</g>
<g
   id="_x37_1"
   transform="translate(-4.9788127,-3.495762)">
</g>
<g
   id="_x37_2"
   transform="translate(-4.9788127,-3.495762)">
</g>
<g
   id="_x37_3"
   transform="translate(-4.9788127,-3.495762)">
</g>
<g
   id="_x37_4"
   transform="translate(-4.9788127,-3.495762)">
</g>
<g
   id="_x37_5"
   transform="translate(-4.9788127,-3.495762)">
</g>
<g
   id="_x37_6"
   transform="translate(-4.9788127,-3.495762)">
</g>
<g
   id="_x37_7"
   transform="translate(-4.9788127,-3.495762)">
</g>
<g
   id="_x37_8"
   transform="translate(-4.9788127,-3.495762)">
</g>
<g
   id="_x37_9"
   transform="translate(-4.9788127,-3.495762)">
</g>
<g
   id="_x38_0"
   transform="translate(-4.9788127,-3.495762)">
</g>
<g
   id="_x38_1"
   transform="translate(-4.9788127,-3.495762)">
</g>
<g
   id="_x38_2"
   transform="translate(-4.9788127,-3.495762)">
</g>
<g
   id="_x38_3"
   transform="translate(-4.9788127,-3.495762)">
</g>
<g
   id="_x38_4"
   transform="translate(-4.9788127,-3.495762)">
</g>
<g
   id="_x38_5"
   transform="translate(-4.9788127,-3.495762)">
</g>
<g
   id="_x38_6"
   transform="translate(-4.9788127,-3.495762)">
</g>
<g
   id="_x38_7"
   transform="translate(-4.9788127,-3.495762)">
</g>
<g
   id="_x38_8"
   transform="translate(-4.9788127,-3.495762)">
</g>
<g
   id="_x38_9"
   transform="translate(-4.9788127,-3.495762)">
</g>
<g
   id="_x39_0"
   transform="translate(-4.9788127,-3.495762)">
</g>
<g
   id="_x39_1"
   transform="translate(-4.9788127,-3.495762)">
</g>
<g
   id="_x39_2"
   transform="translate(-4.9788127,-3.495762)">
</g>
<g
   id="_x39_3"
   transform="translate(-4.9788127,-3.495762)">
</g>
<g
   id="_x39_4"
   transform="translate(-4.9788127,-3.495762)">
</g>
<g
   id="_x39_5"
   transform="translate(-4.9788127,-3.495762)">
</g>
<g
   id="_x39_6"
   transform="translate(-4.9788127,-3.495762)">
</g>
<g
   id="_x39_7"
   transform="translate(-4.9788127,-3.495762)">
</g>
<g
   id="_x39_8"
   transform="translate(-4.9788127,-3.495762)">
</g>
<g
   id="_x39_9"
   transform="translate(-4.9788127,-3.495762)">
</g>
<g
   id="_x31_00"
   transform="translate(-4.9788127,-3.495762)">
</g>
<g
   id="_x31_01"
   transform="translate(-4.9788127,-3.495762)">
</g>
<g
   id="_x31_02"
   transform="translate(-4.9788127,-3.495762)">
</g>
<g
   id="_x31_03"
   transform="translate(-4.9788127,-3.495762)">
</g>
<g
   id="_x31_04"
   transform="translate(-4.9788127,-3.495762)">
</g>
<g
   id="_x31_05"
   transform="translate(-4.9788127,-3.495762)">
</g>
<g
   id="_x31_06"
   transform="translate(-4.9788127,-3.495762)">
</g>
<g
   id="_x31_07"
   transform="translate(-4.9788127,-3.495762)">
</g>
<g
   id="_x31_08"
   transform="translate(-4.9788127,-3.495762)">
</g>
<g
   id="_x31_09"
   transform="translate(-4.9788127,-3.495762)">
</g>
<g
   id="_x31_10"
   transform="translate(-4.9788127,-3.495762)">
</g>
<g
   id="_x31_11"
   transform="translate(-4.9788127,-3.495762)">
</g>
<g
   id="_x31_12"
   transform="translate(-4.9788127,-3.495762)">
</g>
<g
   id="_x31_13"
   transform="translate(-4.9788127,-3.495762)">
</g>
<g
   id="_x31_14"
   transform="translate(-4.9788127,-3.495762)">
</g>
<g
   id="_x31_15"
   transform="translate(-4.9788127,-3.495762)">
</g>
<g
   id="_x31_16"
   transform="translate(-4.9788127,-3.495762)">
</g>
<g
   id="_x31_17"
   transform="translate(-4.9788127,-3.495762)">
</g>
<g
   id="_x31_18"
   transform="translate(-4.9788127,-3.495762)">
</g>
<g
   id="_x31_19"
   transform="translate(-4.9788127,-3.495762)">
</g>
<g
   id="_x31_20"
   transform="translate(-4.9788127,-3.495762)">
</g>
<g
   id="_x31_21"
   transform="translate(-4.9788127,-3.495762)">
</g>
<g
   id="_x31_22"
   transform="translate(-4.9788127,-3.495762)">
</g>
<g
   id="_x31_23"
   transform="translate(-4.9788127,-3.495762)">
</g>
<g
   id="_x31_24"
   transform="translate(-4.9788127,-3.495762)">
</g>
<g
   id="_x31_25"
   transform="translate(-4.9788127,-3.495762)">
</g>
<g
   id="_x31_26"
   transform="translate(-4.9788127,-3.495762)">
</g>
<g
   id="_x31_27"
   transform="translate(-4.9788127,-3.495762)">
</g>
<g
   id="_x31_28"
   transform="translate(-4.9788127,-3.495762)">
</g>
<g
   id="_x31_29"
   transform="translate(-4.9788127,-3.495762)">
</g>
<g
   id="_x31_30"
   transform="translate(-4.9788127,-3.495762)">
</g>
<g
   id="_x31_31"
   transform="translate(-4.9788127,-3.495762)">
</g>
<g
   id="_x31_32"
   transform="translate(-4.9788127,-3.495762)">
</g>
<g
   id="_x31_33"
   transform="translate(-4.9788127,-3.495762)">
</g>
<g
   id="_x31_34"
   transform="translate(-4.9788127,-3.495762)">
</g>
<g
   id="_x31_35"
   transform="translate(-4.9788127,-3.495762)">
</g>
<g
   id="_x31_36"
   transform="translate(-4.9788127,-3.495762)">
</g>
<g
   id="_x31_37"
   transform="translate(-4.9788127,-3.495762)">
</g>
<g
   id="_x31_38"
   transform="translate(-4.9788127,-3.495762)">
</g>
<g
   id="_x31_39"
   transform="translate(-4.9788127,-3.495762)">
</g>
<g
   id="_x31_40"
   transform="translate(-4.9788127,-3.495762)">
</g>
<g
   id="_x31_41"
   transform="translate(-4.9788127,-3.495762)">
</g>
<g
   id="_x31_42"
   transform="translate(-4.9788127,-3.495762)">
</g>
<g
   id="_x31_43"
   transform="translate(-4.9788127,-3.495762)">
</g>
<g
   id="_x31_44"
   transform="translate(-4.9788127,-3.495762)">
</g>
<g
   id="_x31_45"
   transform="translate(-4.9788127,-3.495762)">
</g>
<g
   id="_x31_46"
   transform="translate(-4.9788127,-3.495762)">
</g>
<g
   id="_x31_47"
   transform="translate(-4.9788127,-3.495762)">
</g>
<g
   id="_x31_48"
   transform="translate(-4.9788127,-3.495762)">
</g>
<g
   id="_x31_49"
   transform="translate(-4.9788127,-3.495762)">
</g>
<g
   id="_x31_50"
   transform="translate(-4.9788127,-3.495762)">
</g>
<g
   id="_x31_51"
   transform="translate(-4.9788127,-3.495762)">
</g>
<g
   id="_x31_52"
   transform="translate(-4.9788127,-3.495762)">
</g>
<g
   id="_x31_53"
   transform="translate(-4.9788127,-3.495762)">
</g>
<g
   id="_x31_54"
   transform="translate(-4.9788127,-3.495762)">
</g>
<g
   id="_x31_55"
   transform="translate(-4.9788127,-3.495762)">
</g>
<g
   id="_x31_56"
   transform="translate(-4.9788127,-3.495762)">
</g>
<g
   id="_x31_57"
   transform="translate(-4.9788127,-3.495762)">
</g>
<g
   id="_x31_58"
   transform="translate(-4.9788127,-3.495762)">
</g>
<g
   id="_x31_59"
   transform="translate(-4.9788127,-3.495762)">
</g>
<g
   id="_x31_60"
   transform="translate(-4.9788127,-3.495762)">
</g>
<g
   id="_x31_61"
   transform="translate(-4.9788127,-3.495762)">
</g>
<g
   id="_x31_62"
   transform="translate(-4.9788127,-3.495762)">
</g>
<g
   id="_x31_63"
   transform="translate(-4.9788127,-3.495762)">
</g>
<g
   id="_x31_64"
   transform="translate(-4.9788127,-3.495762)">
</g>
<g
   id="_x31_65"
   transform="translate(-4.9788127,-3.495762)">
</g>
<g
   id="_x31_66"
   transform="translate(-4.9788127,-3.495762)">
</g>
<g
   id="_x31_67"
   transform="translate(-4.9788127,-3.495762)">
</g>
<g
   id="_x31_68"
   transform="translate(-4.9788127,-3.495762)">
</g>
<g
   id="_x31_69"
   transform="translate(-4.9788127,-3.495762)">
</g>
<g
   id="_x31_70"
   transform="translate(-4.9788127,-3.495762)">
</g>
<g
   id="_x31_71"
   transform="translate(-4.9788127,-3.495762)">
</g>
<g
   id="_x31_72"
   transform="translate(-4.9788127,-3.495762)">
</g>
<g
   id="_x31_73"
   transform="translate(-4.9788127,-3.495762)">
</g>
<g
   id="_x31_74"
   transform="translate(-4.9788127,-3.495762)">
</g>
<g
   id="_x31_75"
   transform="translate(-4.9788127,-3.495762)">
</g>
<g
   id="_x31_76"
   transform="translate(-4.9788127,-3.495762)">
</g>
<g
   id="_x31_77"
   transform="translate(-4.9788127,-3.495762)">
</g>
<g
   id="_x31_78"
   transform="translate(-4.9788127,-3.495762)">
</g>
<g
   id="_x31_79"
   transform="translate(-4.9788127,-3.495762)">
</g>
<g
   id="_x31_80"
   transform="translate(-4.9788127,-3.495762)">
</g>
<g
   id="_x31_81"
   transform="translate(-4.9788127,-3.495762)">
</g>
<g
   id="_x31_82"
   transform="translate(-4.9788127,-3.495762)">
</g>
<g
   id="_x31_83"
   transform="translate(-4.9788127,-3.495762)">
</g>
<g
   id="_x31_84"
   transform="translate(-4.9788127,-3.495762)">
</g>
<g
   id="_x31_85"
   transform="translate(-4.9788127,-3.495762)">
</g>
<g
   id="_x31_86"
   transform="translate(-4.9788127,-3.495762)">
	<g
   id="g191"
   transform="translate(-0.21186441,-1.059322)">
		<path
   d="m 20.406847,46.426864 v -4.04 h -0.319 c -0.085,0.174 -0.232,0.353 -0.438,0.538 -0.206,0.185 -0.448,0.342 -0.724,0.473 v 0.477 c 0.153,-0.056 0.327,-0.141 0.52,-0.255 0.193,-0.113 0.349,-0.227 0.467,-0.339 v 3.147 h 0.494 z"
   id="path213"
   inkscape:connector-curvature="0" /><path
   d="m 24.553395,42.891864 c -0.107,-0.163 -0.24,-0.289 -0.404,-0.375 -0.163,-0.086 -0.352,-0.13 -0.567,-0.13 -0.293,0 -0.537,0.078 -0.73,0.236 -0.193,0.157 -0.337,0.38 -0.436,0.67 -0.097,0.291 -0.146,0.673 -0.146,1.149 0,0.756 0.132,1.301 0.397,1.636 0.221,0.278 0.526,0.417 0.915,0.417 0.293,0 0.537,-0.08 0.73,-0.238 0.193,-0.158 0.337,-0.382 0.435,-0.671 0.097,-0.29 0.147,-0.671 0.147,-1.144 0,-0.398 -0.031,-0.716 -0.092,-0.95 -0.059,-0.237 -0.142,-0.436 -0.249,-0.6 z m -0.4,2.866 c -0.155,0.22 -0.345,0.33 -0.571,0.33 -0.228,0 -0.418,-0.11 -0.574,-0.329 -0.155,-0.218 -0.23,-0.658 -0.23,-1.318 0,-0.66 0.085,-1.113 0.253,-1.358 0.137,-0.192 0.317,-0.289 0.544,-0.289 0.231,0 0.423,0.109 0.578,0.326 0.155,0.218 0.232,0.658 0.232,1.32 0.001,0.661 -0.076,1.099 -0.232,1.318 z"
   id="path217"
   inkscape:connector-curvature="0" /><path
   d="m 36.876031,42.892864 c -0.108,-0.164 -0.242,-0.289 -0.404,-0.376 -0.163,-0.086 -0.352,-0.13 -0.568,-0.13 -0.292,0 -0.536,0.079 -0.729,0.236 -0.193,0.157 -0.339,0.381 -0.438,0.67 -0.097,0.291 -0.146,0.672 -0.146,1.148 0,0.757 0.132,1.302 0.396,1.636 0.222,0.278 0.526,0.418 0.915,0.418 0.294,0 0.538,-0.079 0.73,-0.238 0.193,-0.158 0.339,-0.382 0.436,-0.672 0.097,-0.289 0.146,-0.671 0.146,-1.144 0,-0.397 -0.031,-0.716 -0.09,-0.95 -0.059,-0.235 -0.143,-0.434 -0.248,-0.598 z m -0.4,2.867 c -0.155,0.219 -0.345,0.329 -0.572,0.329 -0.227,0 -0.418,-0.109 -0.572,-0.328 -0.155,-0.219 -0.232,-0.658 -0.232,-1.319 0,-0.659 0.085,-1.112 0.255,-1.357 0.135,-0.192 0.317,-0.289 0.544,-0.289 0.231,0 0.423,0.109 0.578,0.326 0.154,0.218 0.232,0.658 0.232,1.32 -0.001,0.659 -0.079,1.098 -0.233,1.318 z"
   id="path221"
   inkscape:connector-curvature="0" /><path
   d="m 32.386485,42.893864 c -0.107,-0.164 -0.24,-0.289 -0.404,-0.376 -0.163,-0.087 -0.352,-0.131 -0.568,-0.131 -0.292,0 -0.536,0.079 -0.729,0.236 -0.193,0.157 -0.337,0.382 -0.436,0.67 -0.097,0.292 -0.147,0.674 -0.147,1.15 0,0.756 0.133,1.3 0.398,1.636 0.221,0.276 0.525,0.416 0.914,0.416 0.294,0 0.538,-0.078 0.732,-0.237 0.191,-0.157 0.337,-0.383 0.435,-0.673 0.097,-0.289 0.146,-0.671 0.146,-1.142 0,-0.399 -0.03,-0.717 -0.09,-0.951 -0.062,-0.236 -0.146,-0.434 -0.251,-0.598 z m -0.4,2.867 c -0.155,0.219 -0.345,0.329 -0.572,0.329 -0.227,0 -0.417,-0.11 -0.572,-0.329 -0.155,-0.219 -0.23,-0.657 -0.23,-1.317 0,-0.661 0.083,-1.113 0.253,-1.359 0.135,-0.192 0.317,-0.287 0.544,-0.287 0.231,0 0.423,0.107 0.578,0.326 0.155,0.216 0.232,0.657 0.232,1.32 -10e-4,0.658 -0.078,1.097 -0.233,1.317 z"
   id="path229"
   inkscape:connector-curvature="0" /><path
   d="m 27.48194,42.924864 c -0.207,0.185 -0.448,0.342 -0.724,0.473 v 0.477 c 0.153,-0.057 0.327,-0.141 0.52,-0.254 0.193,-0.113 0.349,-0.227 0.467,-0.34 v 3.147 h 0.494 v -4.041 h -0.319 c -0.085,0.175 -0.232,0.353 -0.438,0.538 z"
   id="path231"
   inkscape:connector-curvature="0" /><path
   d="m 36.87353,24.911017 c -0.107,-0.164 -0.24,-0.289 -0.404,-0.376 -0.163,-0.087 -0.352,-0.131 -0.567,-0.131 -0.293,0 -0.537,0.079 -0.73,0.236 -0.193,0.157 -0.337,0.382 -0.436,0.67 -0.097,0.292 -0.146,0.674 -0.146,1.15 0,0.756 0.132,1.3 0.397,1.636 0.221,0.276 0.526,0.416 0.915,0.416 0.293,0 0.537,-0.078 0.73,-0.237 0.193,-0.157 0.337,-0.383 0.435,-0.673 0.097,-0.289 0.147,-0.671 0.147,-1.142 0,-0.399 -0.031,-0.717 -0.092,-0.951 -0.059,-0.236 -0.142,-0.434 -0.249,-0.598 z m -0.4,2.867 c -0.155,0.219 -0.345,0.329 -0.571,0.329 -0.228,0 -0.418,-0.11 -0.574,-0.329 -0.155,-0.219 -0.23,-0.657 -0.23,-1.317 0,-0.661 0.085,-1.113 0.253,-1.359 0.137,-0.192 0.317,-0.287 0.544,-0.287 0.231,0 0.423,0.107 0.578,0.326 0.155,0.216 0.232,0.657 0.232,1.32 10e-4,0.658 -0.076,1.097 -0.232,1.317 z"
   id="path235"
   inkscape:connector-curvature="0" /><path
   d="m 21.940472,32.696518 c 0,0 -0.05037,-0.532425 -0.07516,-0.799404 0.131125,-0.07212 0.256653,-0.150368 0.374186,-0.237826 0.20868,0.115077 0.624442,0.345999 0.624442,0.345999 l 0.709193,-0.178754 0.804339,-1.334129 -0.186293,-0.680491 c 0,0 -0.535693,-0.298433 -0.80354,-0.445732 -0.0072,-0.148066 -0.02399,-0.295365 -0.05517,-0.436527 0.212678,-0.174917 0.636435,-0.523218 0.636435,-0.523218 V 27.70293 l -1.0466,-1.17072 h -0.73318 c 0,0 -0.3478,0.285392 -0.521301,0.428855 -0.188692,-0.08746 -0.387778,-0.159574 -0.595658,-0.214044 -0.01679,-0.197933 -0.05037,-0.594566 -0.05037,-0.594566 l -0.518103,-0.497134 -1.601482,0.124284 -0.518103,0.497134 c 0,0 0.04397,0.522451 0.06556,0.783293 -0.15671,0.08516 -0.304625,0.181822 -0.442946,0.289994 -0.224671,-0.09973 -0.676412,-0.296899 -0.676412,-0.296899 l -0.709194,0.177986 -0.670815,1.402409 -0.02319,0.0959 0.210279,0.584592 c 0,0 0.522901,0.229388 0.78515,0.344465 0.01119,0.165711 0.03758,0.326052 0.08075,0.483325 -0.199885,0.161108 -0.598857,0.48716 -0.598857,0.48716 v 0.702739 l 1.038605,1.176857 c 0,0 0.603654,0.06905 0.636435,0.0514 0.03278,-0.01688 0.09754,-0.0514 0.09754,-0.0514 0,0 0.379783,-0.308407 0.569274,-0.463378 0.159908,0.06905 0.327012,0.126585 0.500513,0.171849 0.01919,0.207139 0.05917,0.62065 0.05917,0.62065 l 0.518103,0.497134 1.599083,-0.140394 0.517304,-0.497901 z m -1.874925,-1.650976 c -0.892289,0 -1.615874,-0.6943 -1.615874,-1.550475 0,-0.856942 0.723585,-1.551242 1.615874,-1.551242 0.893887,0 1.617472,0.6943 1.617472,1.551242 0,0.855408 -0.723585,1.550475 -1.617472,1.550475 z"
   id="path193"
   inkscape:connector-curvature="0" />
		<path
   d="m 12.268829,39.712409 c 0,0 -0.048,-0.525 -0.071,-0.788 0.124,-0.071 0.243,-0.148 0.354,-0.234 0.197,0.113 0.59,0.341 0.59,0.341 l 0.671,-0.176 0.761,-1.315 -0.176,-0.67 c 0,0 -0.506,-0.294 -0.76,-0.439 -0.006,-0.146 -0.022,-0.291 -0.052,-0.43 0.201,-0.172 0.602,-0.516 0.602,-0.516 v -0.693 l -0.99,-1.154 h -0.694 c 0,0 -0.329,0.281 -0.493,0.422 -0.178,-0.086 -0.367,-0.157 -0.563,-0.211 -0.016,-0.195 -0.047,-0.586 -0.047,-0.586 l -0.49,-0.49 -1.5139998,0.123 -0.49,0.49 c 0,0 0.042,0.515 0.062,0.771 -0.148,0.084 -0.289,0.18 -0.419,0.286 -0.2119999,-0.098 -0.6389991,-0.292 -0.6389991,-0.292 l -0.6709996,0.176 -0.634,1.382 -0.022,0.094 0.199,0.576 c 0,0 0.495,0.226 0.7419996,0.339 0.011,0.164 0.036,0.321 0.077,0.477 -0.1889996,0.159 -0.5659996,0.479 -0.5659996,0.479 v 0.693 l 0.9819996,1.16 c 0,0 0.5709991,0.068 0.6019991,0.051 0.031,-0.017 0.092,-0.051 0.092,-0.051 0,0 0.359,-0.304 0.538,-0.456 0.151,0.068 0.309,0.125 0.474,0.169 0.019,0.204 0.056,0.611 0.056,0.611 l 0.4900008,0.49 1.511999,-0.138 0.487,-0.491 z m -1.773,-1.627 c -0.8439998,0 -1.5279998,-0.685 -1.5279998,-1.528 0,-0.845 0.684,-1.529 1.5279998,-1.529 0.845,0 1.53,0.685 1.53,1.529 0,0.843 -0.685,1.528 -1.53,1.528 z"
   id="path195"
   inkscape:connector-curvature="0" />
		
		
		
		<path
   d="m 29.927788,19.607262 c -0.0034,-0.269713 -0.02474,-0.537735 -0.07166,-0.797302 0.383019,-0.305224 1.150765,-0.914826 1.150765,-0.914826 l 0.0418,-1.277543 -1.771786,-2.186452 -1.290665,-0.04143 c 0,0 -0.628698,0.500534 -0.941768,0.749955 -0.326718,-0.169099 -0.672204,-0.311988 -1.03475,-0.422748 -0.01791,-0.361027 -0.05374,-1.083925 -0.05374,-1.083925 l -0.882908,-0.931736 -2.823597,0.136125 -0.940915,0.874242 c 0,0 0.04606,0.951182 0.0691,1.426351 -0.280654,0.14627 -0.546806,0.314524 -0.795897,0.501378 -0.389844,-0.192772 -1.172091,-0.577473 -1.172091,-0.577473 l -1.258249,0.284932 -1.261662,2.511122 -0.04692,0.171636 0.334396,1.074625 c 0,0 0.906793,0.44473 1.360615,0.667941 0.01024,0.302687 0.04777,0.596074 0.113456,0.882697 -0.36084,0.282396 -1.082521,0.85226 -1.082521,0.85226 l -0.0418,1.275852 1.757284,2.195752 c 0,0 1.057782,0.159798 1.11579,0.130206 0.05801,-0.02959 0.174022,-0.08878 0.174022,-0.08878 0,0 0.685853,-0.53858 1.028779,-0.808294 0.277241,0.134434 0.567279,0.249422 0.870111,0.33989 0.02218,0.377091 0.06654,1.130427 0.06654,1.130427 l 0.882908,0.931736 2.820185,-0.164026 0.940914,-0.873397 c 0,0 -0.0563,-0.971474 -0.08531,-1.456789 0.233736,-0.123442 0.459795,-0.259567 0.673057,-0.411756 0.359135,0.22152 1.077403,0.66456 1.077403,0.66456 l 1.25825,-0.285778 1.494544,-2.379224 -0.287478,-1.247106 c 8.53e-4,8.46e-4 -0.923854,-0.569018 -1.386207,-0.853105 z m -5.94235,2.862848 c -1.569613,-0.04988 -2.801418,-1.351947 -2.750235,-2.907659 0.05033,-1.558248 1.364028,-2.778298 2.933641,-2.728414 1.571319,0.05073 2.803124,1.351948 2.752794,2.910196 -0.05118,1.556557 -1.364881,2.776607 -2.9362,2.725877 z"
   id="path203"
   inkscape:connector-curvature="0" />
		
		<path
   d="m 24.132099,39.995271 c 0.294,0 0.537,-0.08 0.73,-0.238 0.193,-0.158 0.339,-0.382 0.436,-0.671 0.097,-0.29 0.146,-0.671 0.146,-1.144 0,-0.398 -0.031,-0.716 -0.09,-0.95 -0.061,-0.236 -0.145,-0.435 -0.25,-0.6 -0.108,-0.163 -0.242,-0.289 -0.404,-0.375 -0.163,-0.086 -0.352,-0.13 -0.568,-0.13 -0.293,0 -0.536,0.078 -0.729,0.236 -0.193,0.157 -0.339,0.38 -0.438,0.67 -0.096,0.291 -0.146,0.673 -0.146,1.149 0,0.756 0.132,1.301 0.396,1.636 0.223,0.277 0.528,0.417 0.917,0.417 z m -0.549,-3.412 c 0.135,-0.192 0.317,-0.289 0.544,-0.289 0.23,0 0.422,0.109 0.578,0.326 0.154,0.218 0.232,0.658 0.232,1.32 0,0.659 -0.078,1.098 -0.232,1.317 -0.155,0.22 -0.346,0.33 -0.572,0.33 -0.227,0 -0.418,-0.11 -0.572,-0.329 -0.155,-0.218 -0.232,-0.658 -0.232,-1.318 -0.002,-0.659 0.083,-1.112 0.254,-1.357 z"
   id="path207"
   inkscape:connector-curvature="0" />
		<path
   d="m 32.154054,36.424271 c -0.207,0.185 -0.449,0.342 -0.725,0.473 v 0.477 c 0.154,-0.056 0.328,-0.141 0.521,-0.255 0.193,-0.113 0.348,-0.227 0.467,-0.339 v 3.147 h 0.494 v -4.04 h -0.319 c -0.085,0.174 -0.231,0.352 -0.438,0.537 z"
   id="path209"
   inkscape:connector-curvature="0" />
		<path
   d="m 33.853163,30.976348 c -0.107,-0.163 -0.24,-0.289 -0.404,-0.375 -0.163,-0.086 -0.352,-0.13 -0.568,-0.13 -0.292,0 -0.536,0.078 -0.729,0.236 -0.193,0.157 -0.337,0.38 -0.436,0.67 -0.097,0.29 -0.147,0.673 -0.147,1.148 0,0.756 0.133,1.301 0.398,1.636 0.221,0.278 0.525,0.417 0.914,0.417 0.294,0 0.538,-0.08 0.732,-0.238 0.191,-0.158 0.337,-0.382 0.435,-0.671 0.097,-0.29 0.146,-0.671 0.146,-1.144 0,-0.398 -0.03,-0.716 -0.09,-0.95 -0.062,-0.236 -0.146,-0.435 -0.251,-0.599 z m -0.4,2.866 c -0.155,0.22 -0.345,0.33 -0.572,0.33 -0.227,0 -0.417,-0.11 -0.572,-0.329 -0.155,-0.218 -0.23,-0.658 -0.23,-1.318 0,-0.66 0.083,-1.113 0.253,-1.358 0.135,-0.192 0.317,-0.289 0.544,-0.289 0.231,0 0.423,0.109 0.578,0.326 0.155,0.218 0.232,0.658 0.232,1.32 -10e-4,0.661 -0.078,1.099 -0.233,1.318 z"
   id="path211"
   inkscape:connector-curvature="0" />
		
		<path
   d="m 36.642531,34.511348 v -4.04 h -0.318 c -0.085,0.174 -0.232,0.353 -0.438,0.538 -0.206,0.185 -0.448,0.342 -0.724,0.473 v 0.477 c 0.152,-0.056 0.327,-0.141 0.52,-0.255 0.193,-0.113 0.35,-0.227 0.467,-0.339 v 3.147 h 0.493 z"
   id="path215"
   inkscape:connector-curvature="0" />
		
		<path
   d="m 29.408076,36.393271 c -0.107,-0.164 -0.24,-0.289 -0.404,-0.376 -0.163,-0.086 -0.352,-0.13 -0.568,-0.13 -0.292,0 -0.536,0.079 -0.729,0.236 -0.193,0.157 -0.337,0.381 -0.436,0.67 -0.097,0.291 -0.147,0.673 -0.147,1.149 0,0.757 0.133,1.302 0.398,1.636 0.221,0.278 0.525,0.418 0.914,0.418 0.294,0 0.538,-0.079 0.732,-0.238 0.191,-0.158 0.337,-0.382 0.435,-0.672 0.097,-0.289 0.146,-0.671 0.146,-1.144 0,-0.397 -0.03,-0.716 -0.09,-0.95 -0.062,-0.236 -0.146,-0.435 -0.251,-0.599 z m -0.4,2.867 c -0.155,0.219 -0.345,0.329 -0.572,0.329 -0.227,0 -0.417,-0.109 -0.572,-0.328 -0.155,-0.219 -0.23,-0.658 -0.23,-1.319 0,-0.659 0.083,-1.112 0.253,-1.357 0.135,-0.192 0.317,-0.289 0.544,-0.289 0.231,0 0.423,0.109 0.578,0.326 0.155,0.218 0.232,0.658 0.232,1.32 -0.001,0.659 -0.078,1.098 -0.233,1.318 z"
   id="path219"
   inkscape:connector-curvature="0" />
		
		<path
   d="m 36.87403,36.393271 c -0.106,-0.164 -0.24,-0.289 -0.402,-0.376 -0.165,-0.086 -0.354,-0.13 -0.568,-0.13 -0.292,0 -0.536,0.079 -0.729,0.236 -0.194,0.157 -0.339,0.381 -0.438,0.67 -0.097,0.291 -0.146,0.672 -0.146,1.148 0,0.757 0.132,1.302 0.396,1.636 0.222,0.278 0.526,0.418 0.915,0.418 0.293,0 0.538,-0.079 0.73,-0.238 0.193,-0.158 0.337,-0.382 0.435,-0.672 0.097,-0.289 0.147,-0.671 0.147,-1.144 0,-0.397 -0.031,-0.716 -0.092,-0.95 -0.057,-0.235 -0.141,-0.434 -0.248,-0.598 z m -0.399,2.867 c -0.154,0.219 -0.346,0.329 -0.571,0.329 -0.228,0 -0.418,-0.109 -0.573,-0.328 -0.155,-0.219 -0.231,-0.658 -0.231,-1.319 0,-0.659 0.085,-1.112 0.254,-1.357 0.136,-0.192 0.318,-0.289 0.544,-0.289 0.23,0 0.423,0.109 0.578,0.326 0.155,0.218 0.233,0.658 0.233,1.32 -10e-4,0.659 -0.079,1.098 -0.234,1.318 z"
   id="path223"
   inkscape:connector-curvature="0" />
		
		<path
   d="m 29.843796,31.009348 c -0.207,0.185 -0.449,0.342 -0.725,0.473 v 0.477 c 0.154,-0.057 0.328,-0.141 0.521,-0.254 0.193,-0.113 0.348,-0.227 0.467,-0.34 v 3.147 h 0.494 v -4.041 h -0.319 c -0.086,0.174 -0.232,0.353 -0.438,0.538 z"
   id="path227"
   inkscape:connector-curvature="0" />
		
		
		<path
   d="m 32.952068,24.942017 c -0.207,0.185 -0.448,0.342 -0.724,0.473 v 0.477 c 0.152,-0.057 0.327,-0.141 0.52,-0.254 0.193,-0.113 0.35,-0.227 0.467,-0.34 v 3.147 h 0.494 v -4.041 h -0.318 c -0.086,0.175 -0.233,0.353 -0.439,0.538 z"
   id="path233"
   inkscape:connector-curvature="0" />
		
	<g
   id="g3"
   transform="matrix(0.18220338,0,0,0.53389834,5.1906771,4.555084)"><path
     d="M 25,20.833 C 15.81,20.833 8.333,13.357 8.333,4.167 8.333,1.866 6.468,0 4.167,0 1.866,0 0,1.866 0,4.167 c 0,13.785 11.215,25 25,25 9.19,0 16.667,7.476 16.667,16.666 0,2.301 1.865,4.167 4.167,4.167 2.302,0 4.166,-1.866 4.166,-4.167 0,-13.785 -11.215,-25 -25,-25 z"
     id="path5"
     inkscape:connector-curvature="0" /><path
     d="M 38.416,42.424 H 8.727 c 0.357,-1.693 0.962,-3.285 1.791,-4.747 H 36.186 C 35.415,36.621 34.492,35.699 33.461,34.899 H 12.469 C 13.904,33.26 15.643,31.893 17.612,30.915 14.44,30.036 11.499,28.62 8.89,26.753 3.461,31.337 0,38.184 0,45.833 0,48.134 1.865,50 4.167,50 c 2.302,0 4.167,-1.866 4.167,-4.167 0,-0.214 0.038,-0.42 0.046,-0.632 h 30.446 c -0.046,-0.955 -0.182,-1.883 -0.41,-2.777 z"
     id="path7"
     inkscape:connector-curvature="0" /><path
     d="m 11.584,7.576 h 29.688 c -0.355,1.693 -0.963,3.285 -1.792,4.747 H 13.814 c 0.771,1.056 1.694,1.978 2.725,2.778 h 20.987 c -1.434,1.636 -3.17,3 -5.138,3.979 3.172,0.879 6.113,2.3 8.722,4.167 C 46.539,18.658 50,11.816 50,4.167 50,1.866 48.135,0 45.833,0 c -2.302,0 -4.167,1.866 -4.167,4.167 0,0.214 -0.038,0.42 -0.046,0.632 H 11.175 c 0.045,0.955 0.181,1.883 0.409,2.777 z"
     id="path9"
     inkscape:connector-curvature="0" /></g></g>
</g>
<g
   id="_x31_87"
   transform="translate(-4.9788127,-3.495762)">
</g>
<g
   id="_x31_88"
   transform="translate(-4.9788127,-3.495762)">
</g>
<g
   id="_x31_89"
   transform="translate(-4.9788127,-3.495762)">
</g>
<g
   id="_x31_90"
   transform="translate(-4.9788127,-3.495762)">
</g>
</svg>