<?xml version="1.0" encoding="UTF-8" standalone="no"?>
<!-- Generator: Adobe Illustrator 17.0.0, SVG Export Plug-In . SVG Version: 6.00 Build 0)  -->

<svg
   xmlns:dc="http://purl.org/dc/elements/1.1/"
   xmlns:cc="http://creativecommons.org/ns#"
   xmlns:rdf="http://www.w3.org/1999/02/22-rdf-syntax-ns#"
   xmlns="http://www.w3.org/2000/svg"
   xmlns:sodipodi="http://sodipodi.sourceforge.net/DTD/sodipodi-0.dtd"
   xmlns:inkscape="http://www.inkscape.org/namespaces/inkscape"
   version="1.1"
   id="Capa_1"
   x="0px"
   y="0px"
   width="39.259998"
   height="41.649414"
   viewBox="0 0 39.259998 41.649415"
   enable-background="new 0 0 17.846 21.414"
   xml:space="preserve"
   inkscape:version="0.48.4 r9939"
   sodipodi:docname="sample.svg"><metadata
   id="metadata9"><rdf:RDF><cc:Work
       rdf:about=""><dc:format>image/svg+xml</dc:format><dc:type
         rdf:resource="http://purl.org/dc/dcmitype/StillImage" /><dc:title /></cc:Work></rdf:RDF></metadata><defs
   id="defs7" /><sodipodi:namedview
   pagecolor="#ffffff"
   bordercolor="#666666"
   borderopacity="1"
   objecttolerance="10"
   gridtolerance="10"
   guidetolerance="10"
   inkscape:pageopacity="0"
   inkscape:pageshadow="2"
   inkscape:window-width="892"
   inkscape:window-height="799"
   id="namedview5"
   showgrid="false"
   inkscape:zoom="11.020828"
   inkscape:cx="19.008448"
   inkscape:cy="25.544858"
   inkscape:window-x="0"
   inkscape:window-y="0"
   inkscape:window-maximized="0"
   inkscape:current-layer="Capa_1"
   showguides="true"
   inkscape:guide-bbox="true"
   fit-margin-top="0"
   fit-margin-left="0"
   fit-margin-right="0"
   fit-margin-bottom="0" />
<path
   d="m 25.51702,13.882491 0,-12.1457211 1.96234,0 0,-1.7367699 -1.96234,0 -5.889221,0 -5.889218,0 -1.96234,0 0,1.7367699 1.964538,0 0,12.1457211 c 0,0 -13.74078,17.354084 -13.74078,22.560506 0,5.206419 5.8892216,5.206419 5.8892216,5.206419 l 13.7407794,0 13.740779,0 c 0,0 5.889221,0 5.889221,-5.206419 0,-3.33605 -5.642448,-11.659558 -9.696467,-17.209348 -2.272904,-3.111515 -4.046513,-5.351158 -4.046513,-5.351158 z m 7.84936,26.030155 -13.738581,0 -13.7407794,0 c -0.65338,0 -3.9268815,-0.171148 -3.9268815,-3.471595 0,-3.391856 8.2123499,-15.028019 13.3865939,-21.564731 l 0.354187,-0.449265 0,-0.544564 0,-12.1457211 7.85156,0 0,12.1457211 0,0.544564 0.354191,0.449265 c 5.17424,6.536712 13.38439,18.172875 13.38439,21.564731 0.0021,3.172085 -3.011708,3.45798 -3.92468,3.471595 z M 13.738581,33.364265 c 0,0.958822 -0.877775,1.734825 -1.96234,1.734825 -1.084568,0 -1.9623434,-0.776003 -1.9623434,-1.734825 0,-0.958821 0.8777754,-1.734825 1.9623434,-1.734825 1.084565,0 1.96234,0.776004 1.96234,1.734825 z m 11.72784,2.433034 c 0,1.291394 -1.183565,2.337734 -2.644319,2.337734 -1.460755,0 -2.644321,-1.04634 -2.644321,-2.337734 0,-1.291395 1.183566,-2.337735 2.644321,-2.337735 1.460754,0 2.644319,1.04634 2.644319,2.337735 z M 20.771765,32.68356 c 0,1.209711 -1.108766,2.189925 -2.477124,2.189925 -1.368359,0 -2.477125,-0.980214 -2.477125,-2.189925 0,-1.20971 1.108766,-2.189925 2.477125,-2.189925 1.368358,0 2.477124,0.980215 2.477124,2.189925 z m -2.93251,-2.788944 c -2.019539,0 -3.658489,-1.44893 -3.658489,-3.234321 0,-1.785393 1.63895,-3.234321 3.658489,-3.234321 2.019538,0 3.658489,1.448928 3.658489,3.234321 0,1.785391 -1.638951,3.234321 -3.658489,3.234321 z m 5.517432,-3.008717 c 0,-0.958821 0.877771,-1.734825 1.962338,-1.734825 1.084569,0 1.96234,0.776004 1.96234,1.734825 0,0.958822 -0.877771,1.734825 -1.96234,1.734825 -1.084567,0 -1.962338,-0.776003 -1.962338,-1.734825 z m 2.142733,4.125072 c 0,0.632083 -0.578582,1.143584 -1.29356,1.143584 -0.714978,0 -1.29356,-0.511501 -1.29356,-1.143584 0,-0.632083 0.578582,-1.143584 1.29356,-1.143584 0.714978,0 1.29356,0.511501 1.29356,1.143584 z"
   id="path3"
   inkscape:connector-curvature="0"
   sodipodi:nodetypes="cccccccccccscccsscccssccccccccccssssssssssssssssssssssssssssss"
   style="fill:#333333" />
<path
   style="fill:#0000aa;stroke:none"
   d="m 28.036266,36.443265 c -3.362279,-1.560866 -2.303626,-6.843106 1.371476,-6.843106 2.909778,0 4.497432,3.582005 2.589404,5.842129 -1.036807,1.228135 -2.61333,1.626546 -3.96088,1.000977 z"
   id="path2986"
   inkscape:connector-curvature="0" /><path
   style="fill:#0000ff;stroke:none"
   d="M 5.9941066,37.516542 C 4.634482,36.840526 4.556117,34.954658 5.8554546,34.179992 c 1.666435,-0.993521 3.564893,0.947093 2.549186,2.605793 -0.311536,0.508754 -1.107101,0.995845 -1.616174,0.989516 -0.154529,-0.0018 -0.511991,-0.118365 -0.794366,-0.258759 l 0,0 z"
   id="path2988"
   inkscape:connector-curvature="0" /><path
   style="fill:#0000ff;stroke:none"
   d="m 17.944438,19.753638 c -1.483986,-0.605596 -1.588177,-2.591455 -0.175807,-3.351056 1.539884,-0.828186 3.148138,0.969949 2.315222,2.588576 -0.166936,0.324383 -1.331397,1.036721 -1.59432,0.975282 -0.03041,-0.0072 -0.27569,-0.102854 -0.545084,-0.212802 z"
   id="path2992"
   inkscape:connector-curvature="0" /><path
   style="fill:#0000ff;stroke:none"
   d="m 22.966407,23.153177 c -1.103996,-0.416421 -1.181507,-1.781941 -0.130789,-2.304259 1.14558,-0.569479 2.342024,0.666958 1.722385,1.779961 -0.12419,0.223053 -0.990479,0.712873 -1.186078,0.670626 -0.02262,-0.005 -0.205096,-0.07072 -0.405509,-0.146328 z"
   id="path2992-7"
   inkscape:connector-curvature="0" /><path
   style="fill:#550000;stroke:none"
   d="m 14.043101,37.080691 c -0.582388,-0.328373 -0.765038,-1.05593 -0.401612,-1.59975 0.430908,-0.644797 1.239313,-0.767006 1.819725,-0.275094 0.294284,0.249412 0.362274,0.376728 0.399763,0.748582 0.09986,0.990513 -0.928582,1.627681 -1.817876,1.126262 l 0,0 z"
   id="path3012"
   inkscape:connector-curvature="0" /><path
   style="fill:#550000;stroke:none"
   d="m 17.819474,34.98674 c -0.754584,-0.139502 -1.294456,-0.557792 -1.65743,-1.284169 -0.655301,-1.311372 -0.134109,-2.824997 1.176837,-3.417724 1.410611,-0.637789 3.093575,0.438781 3.241829,2.073757 0.143397,1.5814 -1.249906,2.907541 -2.761236,2.628136 z"
   id="path3014"
   inkscape:connector-curvature="0" /></svg>