<!-- Created with Inkscape (http://www.inkscape.org/) -->
<svg xmlns:rdf="http://www.w3.org/1999/02/22-rdf-syntax-ns#" xmlns="http://www.w3.org/2000/svg" height="100" width="400" version="1.1" xmlns:cc="http://creativecommons.org/ns#" xmlns:dc="http://purl.org/dc/elements/1.1/">
 <metadata>
  <rdf:RDF>
   <cc:Work rdf:about="">
    <dc:format>image/svg+xml</dc:format>
    <dc:type rdf:resource="http://purl.org/dc/dcmitype/StillImage"/>
    <dc:title/>
   </cc:Work>
  </rdf:RDF>
 </metadata>
 <g transform="translate(0,-952.3622)">
  <flowRoot style="letter-spacing:0px;word-spacing:0px;" line-height="125%" font-weight="normal" xml:space="preserve" font-size="40px" transform="translate(0,602.3622)" font-style="normal" font-family="Sans" fill="#000000"><flowRegion><rect y="215.71428" width="874.28571" x="22.857143" height="202.85715"/></flowRegion><flowPara/></flowRoot>
  <flowRoot style="letter-spacing:0px;word-spacing:0px;" line-height="125%" font-weight="normal" xml:space="preserve" font-size="40px" transform="translate(0,852.3622)" font-style="normal" font-family="Sans" fill="#000000"><flowRegion><rect y="-34.285713" width="20" x="177.14285" height="97.14286"/></flowRegion><flowPara/></flowRoot>
  <flowRoot style="letter-spacing:0px;word-spacing:0px;" line-height="125%" font-weight="normal" xml:space="preserve" font-size="40px" transform="translate(0,852.3622)" font-style="normal" font-family="Sans" fill="#000000"><flowRegion><rect y="100" width="368.57144" x="22.857143" height="82.85714"/></flowRegion><flowPara/></flowRoot>
  <g fill="#000" transform="matrix(0.01595919,0,0,-0.01601102,-1.6699786,1051.8866)">
   <path d="m3378.027,5815.002c234.004-64.004,395.996-157.998,572.002-332.002,175.996-172.998,290.996-389.004,345-642.998,25-117.998,25-362.998,0-480-82.998-389.004-329.004-711.006-672.002-880-150-74.004-354.004-130-472.002-130h-33.994l2.998-71.006,2.998-70,52.002-17.998c98.994-32.998,170.996-100,215-197.998,20.996-45.996,27.002-127.998,15.996-235.996-2.998-24.004,4.004-32.002,49.004-58.008l50.996-30,56.006,74.004c182.998,242.998,440.996,407.998,750.996,477.002,127.998,28.994,355.996,32.002,482.998,7.002,452.998-91.006,815-404.004,956.006-827.002,55-164.004,68.994-267.002,62.998-455-4.004-129.004-10-179.004-31.006-260-13.994-55-25.996-102.002-25-105,1.006-11.006,52.002,138.994,74.004,220,140.996,520.996,34.004,1088.994-290,1530.996-152.998,210-400.996,419.004-627.002,530l-67.002,32.998,6.006,106.006c10.996,197.002-25,435-99.004,648.994-208.994,605-730,1055-1365.996,1176.006-107.998,20.996-112.002,17.998-12.002-10z"/>
   <path d="m2708.027,5823c-76.001-12.998-252.998-69.004-355-112.002-537.002-227.998-937.002-713.994-1053.999-1280.996-30-141.006-43.999-311.006-37.002-430l6.001-106.006-67.002-32.998c-400.996-195-740-590-885.996-1030.996-97.002-292.002-117.002-624.004-57.002-920,20-97.002,87.998-326.006,95-318.008,1.001,1.006-8.999,46.006-22.002,98.008-33.999,128.994-42.998,370.996-18.999,510,91.001,520.996,483.999,922.998,1005,1027.002,118.999,23.994,356.001,22.998,471.001-1.006,162.998-35,323.999-102.002,463.999-193.994,88.999-59.004,231.001-194.004,302.002-288.008l56.001-75,50.996,30c45,26.006,52.002,34.004,49.004,58.008-11.001,106.992-5,190,15,235,45,97.998,115,162.998,215.996,197.998l52.002,17.998,2.998,70.996,3.003,71.006h-33.999c-110,0-316.001,55-452.002,120-453.999,218.994-745,708.994-711.001,1197.998,23.003,325,141.001,587.998,365,812.998,158.999,159.004,331.001,264.004,531.001,322.998,76.001,22.002,80,31.006,10,19.004z"/>
   <path d="M2844.028,4463.996c-270-35.996-577.002-168.994-778.999-335.996l-29.004-22.998,37.002-65c42.002-75,127.998-190,177.998-237.998l34.004-33.008,38.999,32.002c101.997,81.006,255,162.998,381.997,202.998,372.998,118.008,757.998,46.006,1089.004-202.998l40.996-30.996,64.004,70c57.002,63.994,177.998,240.996,177.998,260.996,0,5-24.004,26.006-52.002,47.998-342.998,258.008-768.994,372.002-1181.997,315z"/>
   <path d="m1482.026,3120.998c-17.998-7.998-22.998-22.998-31.997-110-43.003-375.996,60-762.002,288.999-1083.994,160-226.006,358.999-393.008,616.997-519.004,98.003-47.998,126.001-57.998,137.002-47.998,22.998,18.994,122.002,227.998,143.999,302.998l18.999,67.998-91.997,42.998c-50,23.008-118.999,60-151.001,81.006-270,170.996-465,455-531.001,770.996-17.998,86.006-23.999,277.002-11.001,386.006l7.002,65.996-91.001,22.002c-100,22.998-271.997,35-305,20.996z"/>
   <path d="m4453.027,3123.996c-15.996-1.992-72.002-13.994-122.998-25l-92.998-20.996,7.998-60.996c12.002-95,8.994-294.004-6.006-372.002-45.996-236.006-161.992-455-330.996-625-99.004-97.998-190.996-164.004-327.002-231.006l-122.002-60,16.006-51.992c30.996-105.01,100.996-258.008,140-306.006l20-24.004,123.994,61.006c199.004,97.002,341.006,200.996,481.006,352.002,312.002,337.002,470,785.996,427.998,1220-5.996,68.994-15.996,128.994-20.996,135-10,10-141.006,15.996-194.004,8.994z"/>
   <path d="m2733.027,2603.997c-22.002-13.994-46.001-27.998-52.998-32.998-11.001-5.996-9.004-17.002,10.996-57.002,77.002-152.998,122.002-380,113.003-573.994-26.001-593.008-428.999-1064.004-1016.001-1187.002-127.998-27.002-352.998-24.004-490,5.996-246.001,54.004-436.001,156.006-635,341.006l-70,65,52.002-61.006c262.998-307.998,621.997-522.998,1007.998-603.994,387.002-80,782.002-32.002,1140,138.994,66.001,31.006,152.998,79.004,192.998,105l72.998,47.998,68.008-45c77.998-51.992,190-110,300.996-155,442.002-182.998,967.002-170.996,1414.004,33.008,230.996,105,455.996,276.992,630,480,48.994,57.998,47.998,56.992-37.002-22.002-182.002-171.006-387.998-277.998-632.002-329.004-122.998-25.996-365-25.996-485,0-252.002,54.004-464.004,169.004-640,345-180.996,182.002-292.998,392.002-347.002,651.006-25,118.994-23.994,352.998,1.006,475,20,95.996,65.996,235,97.998,297.998,22.002,44.004,22.002,44.004-57.002,85.996l-44.004,23.008-51.992-46.006c-123.008-110.996-315.005-110.996-438.003,0-27.002,24.004-53.003,44.004-57.002,42.998-5,0-26.997-11.993-48.999-25z"/>
  </g>
  <flowRoot style="letter-spacing:0px;word-spacing:0px;" font-weight="normal" xml:space="preserve" font-size="40px" transform="matrix(1.2681947,0,0,1.2681947,55.572501,955.61256)" font-stretch="normal" line-height="125%" font-variant="normal" font-style="normal" font-family="Cocktail Shaker" fill="#000000"><flowRegion><rect height="62.376236" width="392.07919" y="31.683168" x="18.811882"/></flowRegion><flowPara><flowSpan fill="#37abc8">S</flowSpan><flowSpan font-family="Arial" font-style="normal" font-stretch="normal" font-variant="normal" font-weight="normal">yn</flowSpan><flowSpan fill="#ff6600">B</flowSpan><flowSpan font-family="Arial" font-style="normal" font-stretch="normal" font-variant="normal" font-weight="normal">io</flowSpan><flowSpan fill="#00d455">W</flowSpan><flowSpan font-family="Arial" font-style="normal" font-stretch="normal" font-variant="normal" font-weight="normal">atch</flowSpan></flowPara></flowRoot>
 </g>
</svg>
